<svg width="23" height="23" viewBox="0 0 23 23" fill="none" xmlns="http://www.w3.org/2000/svg">
<g id="24 / basic / heart">
<path id="icon" fill-rule="evenodd" clip-rule="evenodd" d="M15.8635 1.91667C14.4762 1.91666 13.5819 2.08193 12.5567 2.58373C12.1772 2.76951 11.8211 2.99324 11.4904 3.25426C11.1724 3.00787 10.8306 2.79441 10.4667 2.61445C9.42167 2.09757 8.48151 1.91666 7.14393 1.91666C3.56158 1.91666 0.958328 4.88487 0.958328 8.73987C0.958328 11.6512 2.58158 14.4634 5.60513 17.1828C7.19218 18.6102 9.21851 20.0228 10.6697 20.7742L11.5 21.2042L12.3303 20.7742C13.7815 20.0228 15.8078 18.6102 17.3949 17.1828C20.4184 14.4634 22.0417 11.6512 22.0417 8.73987C22.0417 4.92567 19.4139 1.93137 15.8635 1.91667ZM20.125 8.73987C20.125 11.0207 18.7701 13.3681 16.1131 15.7577C14.6646 17.0606 12.8023 18.3626 11.5 19.0456C10.1977 18.3626 8.3354 17.0606 6.88684 15.7577C4.22991 13.3681 2.87499 11.0207 2.87499 8.73987C2.87499 5.89155 4.68015 3.83332 7.14393 3.83332C8.20743 3.83332 8.86278 3.95943 9.617 4.33246C10.0625 4.55281 10.4563 4.84376 10.7971 5.20735L11.5022 5.95958L12.201 5.20139C12.5495 4.82323 12.949 4.52566 13.3993 4.30523C14.1315 3.94688 14.7459 3.83332 15.8595 3.83333C18.2929 3.84342 20.125 5.93108 20.125 8.73987Z" fill="black"/>
</g>
</svg>
