<svg width="19" height="18" viewBox="0 0 19 18" fill="none" xmlns="http://www.w3.org/2000/svg">
<path fill-rule="evenodd" clip-rule="evenodd" d="M13.2254 1.44008e-05C12.0409 0 11.2774 0.154245 10.4022 0.62254C10.0781 0.795918 9.77413 1.00472 9.4918 1.24831C9.22034 1.01837 8.92848 0.819161 8.61785 0.651214C7.72563 0.168833 6.92296 0 5.78099 0C2.72254 0 0.5 2.77007 0.5 6.36773C0.5 9.08469 1.88586 11.7092 4.46723 14.2471C5.82219 15.5792 7.55217 16.8974 8.79113 17.5987L9.5 18L10.2089 17.5987C11.4478 16.8974 13.1778 15.5792 14.5328 14.2471C17.1141 11.7092 18.5 9.08469 18.5 6.36773C18.5 2.80815 16.2565 0.0137359 13.2254 1.44008e-05ZM16.8637 6.36762C16.8637 8.49621 15.7069 10.6869 13.4386 12.917C12.2018 14.1329 10.6119 15.3479 9.50005 15.9854C8.38817 15.3479 6.79827 14.1329 5.56155 12.917C3.29318 10.6869 2.13641 8.49621 2.13641 6.36762C2.13641 3.70944 3.67757 1.78861 5.78104 1.78861C6.68901 1.78861 7.24852 1.90629 7.89243 2.25443C8.27278 2.46006 8.60895 2.73159 8.89994 3.07091L9.50196 3.77292L10.0985 3.06535C10.396 2.71244 10.7372 2.43472 11.1216 2.22901C11.7467 1.89458 12.2712 1.78861 13.222 1.78861C15.2995 1.79802 16.8637 3.74633 16.8637 6.36762Z" fill="black"/>
</svg>
