<svg width="22" height="22" viewBox="0 0 22 22" fill="none" xmlns="http://www.w3.org/2000/svg">
<path fill-rule="evenodd" clip-rule="evenodd" d="M10.5417 21.0833C4.71966 21.0833 0 16.3637 0 10.5417C0 4.71966 4.71966 0 10.5417 0C16.3637 0 21.0833 4.71966 21.0833 10.5417C21.0833 16.3637 16.3637 21.0833 10.5417 21.0833ZM17.6329 15.4528C18.5999 14.0591 19.1667 12.3665 19.1667 10.5417C19.1667 5.77821 15.3051 1.91667 10.5417 1.91667C5.77821 1.91667 1.91667 5.77821 1.91667 10.5417C1.91667 12.3665 2.48341 14.0591 3.45048 15.4528C4.52904 14.0281 7.06349 13.4167 10.5417 13.4167C14.0198 13.4167 16.5543 14.0281 17.6329 15.4528ZM16.2578 17.0006C15.9773 15.992 13.9623 15.3333 10.5417 15.3333C7.12101 15.3333 5.106 15.992 4.82551 17.0006C6.34733 18.3484 8.34894 19.1667 10.5417 19.1667C12.7344 19.1667 14.736 18.3484 16.2578 17.0006ZM10.5417 13.4167C8.39583 13.4167 6.70833 11.9096 6.70833 8.625C6.70833 6.47427 8.22164 4.79167 10.5417 4.79167C12.8553 4.79167 14.375 6.63318 14.375 8.81667C14.375 11.9596 12.6673 13.4167 10.5417 13.4167ZM8.625 8.625C8.625 10.7997 9.40912 11.5 10.5417 11.5C11.6703 11.5 12.4583 10.8276 12.4583 8.81667C12.4583 7.61915 11.7067 6.70833 10.5417 6.70833C9.32817 6.70833 8.625 7.49017 8.625 8.625Z" fill="black"/>
</svg>
